<?xml version="1.0" encoding="utf-8"?>
<!-- Generator: Adobe Illustrator 20.0.0, SVG Export Plug-In . SVG Version: 6.00 Build 0)  -->
<svg version="1.1" id="Layer_1" xmlns="http://www.w3.org/2000/svg" xmlns:xlink="http://www.w3.org/1999/xlink" x="0px" y="0px"
	 viewBox="0 0 129 114" style="enable-background:new 0 0 129 114;" xml:space="preserve">
<style type="text/css">
	.st0{fill:#FFFFFF;}
	.st1{fill:none;stroke:#4CA4CF;stroke-width:2;stroke-linecap:round;stroke-linejoin:round;}
	.st2{fill:#007DBA;fill-opacity:0.7;}
	.st3{fill:#4CA4CF;}
</style>
<title>convert-benefit</title>
<desc>Created with Sketch.</desc>
<g id="_x30_1-benefits-desktop" transform="translate(-476.000000, -228.000000)">
	<g id="convert-benefit" transform="translate(477.000000, 229.000000)">
		<path id="Fill-1" class="st0" d="M125.1,41.5c0.1-8.8-5.4-16.1-12.7-17.2c0.9-4.6-1-9.4-5.2-12c-4.5-2.8-10.1-2.3-14,0.9
			C91.4,7.6,85.1,2.7,76.9,1.3c-10.1-1.8-19.5,2.3-21.5,9.2c-5.8-3-14.5-2.9-22.8,0.8c-8.6,3.9-14.3,10.7-15.4,17.2c0,0-0.1,0-0.1,0
			C12.5,28,8.4,31.4,8,35.9c-0.1,1.5,0.2,2.9,0.8,4.2C4.2,42.6,1.1,47.6,1,53.4c-0.1,7.2,4.5,13.3,10.8,15.1
			c0.6,5.2,5.4,10.4,12.5,12.7c5.4,1.8,10.9,1.5,14.8-0.5C44.4,85,53,87.2,62.2,86c9.6-1.2,17.5-5.9,21.3-11.7
			c4.2,4.7,12.7,6.1,20.7,2.9c9.5-3.8,14.8-12.5,11.8-19.5c-0.1-0.2-0.2-0.4-0.3-0.6C121.1,54.7,125,48.7,125.1,41.5"/>
		<path id="Stroke-3" class="st1" d="M125.1,41.5c0.1-8.8-5.4-16.1-12.7-17.2c0.9-4.6-1-9.4-5.2-12c-4.5-2.8-10.1-2.3-14,0.9
			C91.4,7.6,85.1,2.7,76.9,1.3c-10.1-1.8-19.5,2.3-21.5,9.2c-5.8-3-14.5-2.9-22.8,0.8c-8.6,3.9-14.3,10.7-15.4,17.2c0,0-0.1,0-0.1,0
			C12.5,28,8.4,31.4,8,35.9c-0.1,1.5,0.2,2.9,0.8,4.2C4.2,42.6,1.1,47.6,1,53.4c-0.1,7.2,4.5,13.3,10.8,15.1
			c0.6,5.2,5.4,10.4,12.5,12.7c5.4,1.8,10.9,1.5,14.8-0.5C44.4,85,53,87.2,62.2,86c9.6-1.2,17.5-5.9,21.3-11.7
			c4.2,4.7,12.7,6.1,20.7,2.9c9.5-3.8,14.8-12.5,11.8-19.5c-0.1-0.2-0.2-0.4-0.3-0.6C121.1,54.7,125,48.7,125.1,41.5z"/>
		<path id="Fill-5" class="st0" d="M69.7,95.2c-0.2,2.8-2.7,4.9-5.5,4.7c-2.8-0.2-4.9-2.7-4.7-5.6c0.2-2.8,2.7-4.9,5.6-4.7
			C67.9,89.9,70,92.4,69.7,95.2"/>
		<path id="Stroke-7" class="st1" d="M69.7,95.2c-0.2,2.8-2.7,4.9-5.5,4.7c-2.8-0.2-4.9-2.7-4.7-5.6c0.2-2.8,2.7-4.9,5.6-4.7
			C67.9,89.9,70,92.4,69.7,95.2z"/>
		<path id="Fill-9" class="st0" d="M64.5,107.5c-0.2,1.8-1.7,3.1-3.5,2.9c-1.8-0.2-3.1-1.7-2.9-3.5c0.2-1.8,1.7-3.1,3.5-2.9
			C63.3,104.2,64.6,105.8,64.5,107.5"/>
		<path id="Stroke-11" class="st1" d="M64.5,107.5c-0.2,1.8-1.7,3.1-3.5,2.9c-1.8-0.2-3.1-1.7-2.9-3.5c0.2-1.8,1.7-3.1,3.5-2.9
			C63.3,104.2,64.6,105.8,64.5,107.5z"/>
		<polygon id="_x37_" class="st2" points="20.7,36.2 34.9,35.9 35,38.5 26.3,57.2 22.1,57.3 30.7,39.4 30.7,39.3 20.8,39.5 		"/>
		<path id="_x33_" class="st2" d="M35.2,59.8l1.4-3c0.8,0.6,2.7,1.7,4.7,2c3.1,0.4,4.6-1.1,4.8-2.8c0.4-2.6-1.9-4-4.4-4.3l-1.9-0.3
			l0.4-3l1.9,0.3c1.9,0.3,4.4-0.3,4.7-2.4c0.2-1.5-0.7-2.9-3.1-3.2c-1.8-0.2-3.6,0.3-4.6,0.7l-0.5-3.1c1.3-0.7,3.9-1.1,6.4-0.8
			c4.5,0.6,6.4,3.4,6,6.2c-0.3,2.3-1.9,3.9-4.7,4.5l0,0.1c2.6,0.9,4.4,3.1,4,6c-0.5,3.6-4,6.1-9.3,5.4
			C38.4,61.7,36.2,60.7,35.2,59.8z"/>
		<path id="_x32_" class="st2" d="M70.1,57.1l-14.7,1.3l-0.2-2.5l2.4-2.6c4.7-5.2,6.9-8,6.6-10.9c-0.2-1.9-1.4-3.5-4.2-3.3
			c-1.9,0.2-3.5,1.3-4.5,2.2l-1.5-2.8c1.5-1.4,3.7-2.6,6.5-2.8c4.8-0.4,7.4,2.4,7.7,5.9c0.3,3.8-2.1,7.1-5.6,10.9l-1.7,1.8l0,0.1
			l8.9-0.8L70.1,57.1z"/>
		<g id="ellipse" transform="translate(73.666667, 52.266667)">
			<path id="Fill-21" class="st3" d="M0.5,3.8c-0.1-1.1,0.6-1.9,1.6-2c1-0.1,1.8,0.6,1.9,1.7c0.1,1-0.5,1.9-1.6,2
				C1.4,5.6,0.6,4.9,0.5,3.8"/>
			<path id="Fill-23" class="st3" d="M6.2,3.4c-0.1-1.1,0.6-1.9,1.6-2c1-0.1,1.8,0.6,1.9,1.7c0.1,1-0.5,1.9-1.6,2
				C7.1,5.2,6.3,4.5,6.2,3.4"/>
			<path id="Fill-25" class="st3" d="M11.9,3c-0.1-1.1,0.6-1.9,1.6-2c1-0.1,1.8,0.6,1.9,1.7c0.1,1-0.5,1.9-1.6,2
				C12.8,4.8,12,4,11.9,3"/>
		</g>
		<path id="_x3F_" class="st2" d="M98.3,46.9l-4,0.3l-0.1-0.9c-0.3-1.9,0.1-4,1.7-6.1c1.2-1.8,2.1-3.1,1.9-4.6
			c-0.1-1.5-1.2-2.5-3.2-2.3c-1.3,0.1-2.7,0.6-3.5,1.4l-1.4-3.1c1.2-0.9,3.2-1.8,5.6-2c4.5-0.4,6.8,2,7.1,4.9
			c0.2,2.7-1.2,4.6-2.6,6.5c-1.3,1.8-1.7,3.3-1.5,5.1L98.3,46.9z M96.9,54.9c-1.6,0.1-2.8-1-3-2.6c-0.1-1.7,0.9-2.9,2.5-3.1
			c1.6-0.1,2.8,0.9,3,2.6C99.6,53.5,98.6,54.8,96.9,54.9z"/>
	</g>
</g>
</svg>
