<?xml version="1.0" encoding="UTF-8"?>
<svg width="16px" height="16px" viewBox="0 0 16 16" version="1.1" xmlns="http://www.w3.org/2000/svg" xmlns:xlink="http://www.w3.org/1999/xlink">
    <!-- Generator: Sketch 52.4 (67378) - http://www.bohemiancoding.com/sketch -->
    <title>Element/Both/CrossRed</title>
    <desc>Created with Sketch.</desc>
    <defs>
        <path d="M8.06835938,0.41796875 C7.00194779,0.41796875 5.99540094,0.619278121 5.04868862,1.0219029 C4.10197629,1.42452768 3.27497563,1.97948865 2.56766183,2.68680246 C1.86034803,3.39411626 1.30538706,4.21567612 0.902762277,5.1515067 C0.500137496,6.08733727 0.298828125,7.09932492 0.298828125,8.1875 C0.298828125,9.25391158 0.500137496,10.2604584 0.902762277,11.2071708 C1.30538706,12.1538831 1.86034803,12.9754429 2.56766183,13.671875 C3.27497563,14.3683071 4.10197629,14.923268 5.04868862,15.3367746 C5.99540094,15.7502811 7.00194779,15.9570312 8.06835938,15.9570312 C9.13477096,15.9570312 10.1413178,15.7502811 11.0880301,15.3367746 C12.0347425,14.923268 12.8617431,14.3683071 13.5690569,13.671875 C14.2763707,12.9754429 14.8313317,12.1538831 15.2339565,11.2071708 C15.6365813,10.2604584 15.8378906,9.25391158 15.8378906,8.1875 C15.8378906,7.09932492 15.6365813,6.08733727 15.2339565,5.1515067 C14.8313317,4.21567612 14.2763707,3.39411626 13.5690569,2.68680246 C12.8617431,1.97948865 12.0347425,1.42452768 11.0880301,1.0219029 C10.1413178,0.619278121 9.13477096,0.41796875 8.06835938,0.41796875 Z M8.92115417,8.00837925 L11.5833698,10.6705948 C11.8372106,10.9244356 11.8372106,11.3359929 11.5833698,11.5898337 C11.329529,11.8436745 10.9179717,11.8436745 10.664131,11.5898337 L8.00191536,8.92761807 L5.41885221,11.5106812 C5.16501142,11.764522 4.75345419,11.764522 4.4996134,11.5106812 C4.24577261,11.2568404 4.24577261,10.8452832 4.4996134,10.5914424 L7.08267654,8.00837925 L4.51230196,5.43800467 C4.25846117,5.18416388 4.25846117,4.77260664 4.51230196,4.51876585 C4.76614275,4.26492506 5.17769998,4.26492506 5.43154077,4.51876585 L8.00191536,7.08914043 L10.6514424,4.4396134 C10.9052832,4.18577261 11.3168404,4.18577261 11.5706812,4.4396134 C11.824522,4.69345419 11.824522,5.10501142 11.5706812,5.35885221 L8.92115417,8.00837925 Z" id="path-1"></path>
    </defs>
    <g id="Element/Both/CrossRed" stroke="none" stroke-width="1" fill="none" fill-rule="evenodd">
        <g id="Tick-2">
            <mask id="mask-2" fill="white">
                <use xlink:href="#path-1"></use>
            </mask>
            <use id="Mask" fill="#1D8846" xlink:href="#path-1"></use>
            <g id="Fill" mask="url(#mask-2)" fill="#FE3824">
                <rect id="Rectangle-2-Copy" x="0" y="0" width="16" height="16"></rect>
            </g>
        </g>
    </g>
</svg>