<?xml version="1.0" encoding="UTF-8"?>
<svg width="178px" height="111px" viewBox="0 0 178 111" version="1.1" xmlns="http://www.w3.org/2000/svg" xmlns:xlink="http://www.w3.org/1999/xlink">
    <!-- Generator: Sketch 50.2 (55047) - http://www.bohemiancoding.com/sketch -->
    <title>Illustrations/Set up PIN</title>
    <desc>Created with Sketch.</desc>
    <defs>
        <polygon id="path-1" points="0.5306 0.667 84.5306 0.667 84.5306 18.6667 0.5306 18.6667"></polygon>
        <polygon id="path-3" points="0 111 177.657 111 177.657 0.667 0 0.667"></polygon>
    </defs>
    <g id="L2--App-PIN" stroke="none" stroke-width="1" fill="none" fill-rule="evenodd">
        <g id="intro-to-change" transform="translate(-451.000000, -214.000000)">
            <g id="Illustrations/Set-up-PIN" transform="translate(451.000000, 213.000000)">
                <g id="Group-16" stroke-width="1" fill-rule="evenodd" transform="translate(0.000000, 0.333000)">
                    <g id="Group-3" transform="translate(37.000000, 0.000000)">
                        <mask id="mask-2" fill="white">
                            <use xlink:href="#path-1"></use>
                        </mask>
                        <g id="Clip-2"></g>
                        <path d="M75.5306,18.6667 L9.5306,18.6667 C4.5806,18.6667 0.5306,14.6167 0.5306,9.6667 C0.5306,4.7167 4.5806,0.6667 9.5306,0.6667 L75.5306,0.6667 C80.4806,0.6667 84.5306,4.7167 84.5306,9.6667 C84.5306,14.6167 80.4806,18.6667 75.5306,18.6667" id="Fill-1" fill="#F2F8FB" mask="url(#mask-2)"></path>
                    </g>
                    <path d="M149.1973,111 L80.8613,111 C75.9113,111 71.8613,106.95 71.8613,102 C71.8613,97.05 75.9113,93 80.8613,93 L149.1973,93 C154.1473,93 158.1973,97.05 158.1973,102 C158.1973,106.95 154.1473,111 149.1973,111" id="Fill-4" fill="#F2F8FB"></path>
                    <path d="M129.9902,50.3333 L17.1972,50.3333 C12.2472,50.3333 8.1972,46.2833 8.1972,41.3333 C8.1972,36.3833 12.2472,32.3333 17.1972,32.3333 L129.9902,32.3333 C134.9402,32.3333 138.9902,36.3833 138.9902,41.3333 C138.9902,46.2833 134.9402,50.3333 129.9902,50.3333" id="Fill-6" fill="#F2F8FB"></path>
                    <path d="M168.657,50.3333 L156.262,50.3333 C151.312,50.3333 147.262,46.2833 147.262,41.3333 C147.262,36.3833 151.312,32.3333 156.262,32.3333 L168.657,32.3333 C173.607,32.3333 177.657,36.3833 177.657,41.3333 C177.657,46.2833 173.607,50.3333 168.657,50.3333" id="Fill-8" fill="#F2F8FB"></path>
                    <path d="M37.3237,111 L24.9287,111 C19.9787,111 15.9287,106.95 15.9287,102 C15.9287,97.05 19.9787,93 24.9287,93 L37.3237,93 C42.2737,93 46.3237,97.05 46.3237,102 C46.3237,106.95 42.2737,111 37.3237,111" id="Fill-10" fill="#F2F8FB"></path>
                    <path d="M30.7702,78.4999 L7.0002,78.4999 C3.1502,78.4999 0.0002,75.3499 0.0002,71.4999 C0.0002,67.6499 3.1502,64.4999 7.0002,64.4999 L30.7702,64.4999 C34.6202,64.4999 37.7702,67.6499 37.7702,71.4999 C37.7702,75.3499 34.6202,78.4999 30.7702,78.4999" id="Fill-12" fill="#F2F8FB"></path>
                    <path d="M164.7064,78.4999 L60.3334,78.4999 C56.4834,78.4999 53.3334,75.3499 53.3334,71.4999 C53.3334,67.6499 56.4834,64.4999 60.3334,64.4999 L164.7064,64.4999 C168.5564,64.4999 171.7064,67.6499 171.7064,71.4999 C171.7064,75.3499 168.5564,78.4999 164.7064,78.4999" id="Fill-14" fill="#F2F8FB"></path>
                </g>
                <g id="Group-21" stroke-width="1" fill-rule="evenodd" transform="translate(47.000000, 68.333000)">
                    <path d="M20.6557,0.4162 C20.6557,0.4162 -7.1343,0.4302 2.2557,22.4602 C11.1147,43.2442 30.6707,23.4042 33.0557,17.7362 C35.4407,12.0682 20.6557,0.4162 20.6557,0.4162" id="Fill-17" fill="#FFFFFF"></path>
                    <path d="M20.6557,0.4162 C20.6557,0.4162 -7.1343,0.4302 2.2557,22.4602 C11.1147,43.2442 30.6707,23.4042 33.0557,17.7362 C35.4407,12.0682 20.6557,0.4162 20.6557,0.4162 Z" id="Stroke-19" stroke="#004165" stroke-width="2.948" stroke-linecap="round" stroke-linejoin="round"></path>
                </g>
                <path d="M61.6435,75.2486 C61.6435,79.9426 65.4495,83.7486 70.1435,83.7486 C74.8375,83.7486 78.6435,79.9426 78.6435,75.2486 C78.6435,70.5546 74.8375,66.7486 70.1435,66.7486 C65.4495,66.7486 61.6435,70.5546 61.6435,75.2486 Z" id="Stroke-22" stroke="#007DBA" stroke-width="2.5"></path>
                <g id="Group-46" stroke-width="1" fill-rule="evenodd" transform="translate(0.000000, 0.333000)">
                    <path d="M73.2892,90.0921 L66.4972,90.0921 C63.6512,90.0821 61.3172,87.7561 61.3172,84.9271 L61.3172,69.5531 L61.3172,23.1481 C61.3172,20.3161 63.6472,18.0001 66.4972,18.0001 L111.3872,18.0001 C114.2332,18.0001 116.5672,20.3161 116.5672,23.1481 L116.5672,84.9271 C116.5672,87.7561 114.2332,90.0821 111.3872,90.0921 L84.5932,90.0921 L73.2892,90.0921 Z" id="Fill-24" fill="#FFFFFF"></path>
                    <path d="M73.2892,90.0921 L66.4972,90.0921 C63.6512,90.0821 61.3172,87.7561 61.3172,84.9271 L61.3172,69.5531 L61.3172,23.1481 C61.3172,20.3161 63.6472,18.0001 66.4972,18.0001 L111.3872,18.0001 C114.2332,18.0001 116.5672,20.3161 116.5672,23.1481 L116.5672,84.9271 C116.5672,87.7561 114.2332,90.0821 111.3872,90.0921 L84.5932,90.0921 L73.2892,90.0921 Z" id="Stroke-26" stroke="#004165" stroke-width="3" stroke-linecap="round" stroke-linejoin="round"></path>
                    <path d="M88.9422,80.711 C90.3322,80.711 91.4572,81.834 91.4572,83.211 C91.4572,84.588 90.3322,85.711 88.9422,85.711 C87.5522,85.711 86.4272,84.588 86.4272,83.211 C86.4272,81.834 87.5522,80.711 88.9422,80.711" id="Fill-28" fill="#004165"></path>
                    <mask id="mask-4" fill="white">
                        <use xlink:href="#path-3"></use>
                    </mask>
                    <g id="Clip-31"></g>
                    <polygon id="Fill-30" fill="#FFFFFF" mask="url(#mask-4)" points="68.223 76.347 109.66 76.347 109.66 24.865 68.223 24.865"></polygon>
                    <polygon id="Stroke-32" stroke="#004165" stroke-width="3" stroke-linecap="round" stroke-linejoin="round" mask="url(#mask-4)" points="68.223 76.347 109.66 76.347 109.66 24.865 68.223 24.865"></polygon>
                    <path d="M88.9422,59.0863 C90.3322,59.0863 91.4572,60.2093 91.4572,61.5863 C91.4572,62.9633 90.3322,64.0863 88.9422,64.0863 C87.5522,64.0863 86.4272,62.9633 86.4272,61.5863 C86.4272,60.2093 87.5522,59.0863 88.9422,59.0863" id="Fill-33" fill="#007DBA" mask="url(#mask-4)"></path>
                    <path d="M88.9422,52.0856 C90.3322,52.0856 91.4572,53.2086 91.4572,54.5856 C91.4572,55.9626 90.3322,57.0856 88.9422,57.0856 C87.5522,57.0856 86.4272,55.9626 86.4272,54.5856 C86.4272,53.2086 87.5522,52.0856 88.9422,52.0856" id="Fill-34" fill="#007DBA" mask="url(#mask-4)"></path>
                    <path d="M81.9415,52.0856 C83.3315,52.0856 84.4565,53.2086 84.4565,54.5856 C84.4565,55.9626 83.3315,57.0856 81.9415,57.0856 C80.5515,57.0856 79.4265,55.9626 79.4265,54.5856 C79.4265,53.2086 80.5515,52.0856 81.9415,52.0856" id="Fill-35" fill="#007DBA" mask="url(#mask-4)"></path>
                    <path d="M95.9429,52.0856 C97.3329,52.0856 98.4579,53.2086 98.4579,54.5856 C98.4579,55.9626 97.3329,57.0856 95.9429,57.0856 C94.5529,57.0856 93.4279,55.9626 93.4279,54.5856 C93.4279,53.2086 94.5529,52.0856 95.9429,52.0856" id="Fill-36" fill="#007DBA" mask="url(#mask-4)"></path>
                    <path d="M88.9422,45.0849 C90.3322,45.0849 91.4572,46.2079 91.4572,47.5849 C91.4572,48.9619 90.3322,50.0849 88.9422,50.0849 C87.5522,50.0849 86.4272,48.9619 86.4272,47.5849 C86.4272,46.2079 87.5522,45.0849 88.9422,45.0849" id="Fill-37" fill="#007DBA" mask="url(#mask-4)"></path>
                    <path d="M81.9415,45.0849 C83.3315,45.0849 84.4565,46.2079 84.4565,47.5849 C84.4565,48.9619 83.3315,50.0849 81.9415,50.0849 C80.5515,50.0849 79.4265,48.9619 79.4265,47.5849 C79.4265,46.2079 80.5515,45.0849 81.9415,45.0849" id="Fill-38" fill="#007DBA" mask="url(#mask-4)"></path>
                    <path d="M95.9429,45.0849 C97.3329,45.0849 98.4579,46.2079 98.4579,47.5849 C98.4579,48.9619 97.3329,50.0849 95.9429,50.0849 C94.5529,50.0849 93.4279,48.9619 93.4279,47.5849 C93.4279,46.2079 94.5529,45.0849 95.9429,45.0849" id="Fill-39" fill="#007DBA" mask="url(#mask-4)"></path>
                    <path d="M88.9422,38.0842 C90.3322,38.0842 91.4572,39.2072 91.4572,40.5842 C91.4572,41.9612 90.3322,43.0842 88.9422,43.0842 C87.5522,43.0842 86.4272,41.9612 86.4272,40.5842 C86.4272,39.2072 87.5522,38.0842 88.9422,38.0842" id="Fill-40" fill="#007DBA" mask="url(#mask-4)"></path>
                    <path d="M81.9415,38.0842 C83.3315,38.0842 84.4565,39.2072 84.4565,40.5842 C84.4565,41.9612 83.3315,43.0842 81.9415,43.0842 C80.5515,43.0842 79.4265,41.9612 79.4265,40.5842 C79.4265,39.2072 80.5515,38.0842 81.9415,38.0842" id="Fill-41" fill="#007DBA" mask="url(#mask-4)"></path>
                    <path d="M95.9429,38.0842 C97.3329,38.0842 98.4579,39.2072 98.4579,40.5842 C98.4579,41.9612 97.3329,43.0842 95.9429,43.0842 C94.5529,43.0842 93.4279,41.9612 93.4279,40.5842 C93.4279,39.2072 94.5529,38.0842 95.9429,38.0842" id="Fill-42" fill="#007DBA" mask="url(#mask-4)"></path>
                    <g id="Group-45" mask="url(#mask-4)">
                        <g transform="translate(53.000000, 71.000000)">
                            <path d="M0.2408,9.5866 L13.9558,1.3456 C13.9558,1.3456 16.9518,-0.7984 19.0578,1.4756 C21.6098,4.2316 21.3348,7.3536 13.1928,11.1026 C13.1928,11.1026 16.5008,18.3976 5.8428,22.1346" id="Fill-43" stroke="none" fill="#FFFFFF" fill-rule="evenodd"></path>
                            <path d="M0.2408,9.5866 L13.9558,1.3456 C13.9558,1.3456 16.9518,-0.7984 19.0578,1.4756 C21.6098,4.2316 21.3348,7.3536 13.1928,11.1026 C13.1928,11.1026 16.5008,18.3976 5.8428,22.1346" id="Stroke-44" stroke="#004165" stroke-width="3" fill="none" stroke-linecap="round" stroke-linejoin="round"></path>
                        </g>
                    </g>
                </g>
            </g>
        </g>
    </g>
</svg>