<?xml version="1.0" encoding="UTF-8"?>
<svg width="221px" height="112px" viewBox="0 0 221 112" version="1.1" xmlns="http://www.w3.org/2000/svg" xmlns:xlink="http://www.w3.org/1999/xlink">
    <!-- Generator: Sketch 48.2 (47327) - http://www.bohemiancoding.com/sketch -->
    <title>setup-pin</title>
    <desc>Created with Sketch.</desc>
    <defs>
        <polygon id="path-1" points="0.885913617 0.581132075 86.9663863 0.581132075 86.9663863 103.695728 0.885913617 103.695728"></polygon>
    </defs>
    <g id="07-PIN-explanation-desktop" stroke="none" stroke-width="1" fill="none" fill-rule="evenodd" transform="translate(-430.000000, -230.000000)">
        <g id="setup-pin" transform="translate(430.000000, 229.000000)">
            <path d="M105.530297,41.4096028 C107.987038,41.4096028 109.648432,43.1947172 109.648432,45.792854 C109.648432,48.9565716 107.439132,50.3351748 105.388902,50.3351748 C103.09123,50.3351748 101.288441,48.6384324 101.288441,45.9342492 C101.288441,43.0886708 103.179602,41.4096028 105.530297,41.4096028 Z M105.494948,42.5761132 C103.674485,42.5761132 102.879137,44.2728556 102.879137,45.881226 C102.879137,47.7547124 103.939601,49.1686644 105.459599,49.1686644 C106.944249,49.1686644 108.057736,47.7723868 108.057736,45.8458772 C108.057736,44.3965764 107.333086,42.5761132 105.494948,42.5761132 Z M111.61029,50.1407564 L111.61029,44.2551812 C111.61029,43.2477404 111.592616,42.3816948 111.539593,41.5863468 L112.900522,41.5863468 L112.971219,43.2830892 L113.024242,43.2830892 C113.413079,42.1342532 114.367497,41.4096028 115.410286,41.4096028 C115.569356,41.4096028 115.693077,41.4272772 115.834472,41.4449516 L115.834472,42.9119268 C115.675402,42.876578 115.516333,42.876578 115.30424,42.876578 C114.208427,42.876578 113.430754,43.6896004 113.218661,44.8561108 C113.183312,45.0682036 113.165638,45.3333196 113.165638,45.5807612 L113.165638,50.1407564 L111.61029,50.1407564 Z" id="or" fill="#5BB3D8"></path>
            <g id="Group-36" transform="translate(0.000000, 0.475472)">
                <g id="ipad">
                    <path d="M28.5057911,102.638068 C25.3634685,102.638068 22.604202,100.521691 21.7949434,97.4913509 L2.17489556,23.9718038 C1.18568483,20.2673509 3.40404252,16.4403321 7.11989689,15.4407849 L57.526498,1.88033208 C58.1252862,1.7186717 58.7388073,1.63731321 59.3512761,1.63731321 C62.4904417,1.63731321 65.2486559,3.75369057 66.0579144,6.78508679 L85.6779623,80.304634 C86.667173,84.0090868 84.447763,87.8361057 80.7319086,88.8356528 L30.3253075,102.396106 C29.728624,102.557766 29.1161552,102.638068 28.5057911,102.638068" id="Fill-1" fill="#FFFFFF"></path>
                    <g id="Group-5">
                        <mask id="mask-2" fill="white">
                            <use xlink:href="#path-1"></use>
                        </mask>
                        <g id="Clip-4"></g>
                        <path d="M59.3505395,0.580709434 C58.6591443,0.580709434 57.9540686,0.670520755 57.2542546,0.85965283 L6.84765347,14.4201057 C2.56879086,15.5718038 0.0178899814,19.9715019 1.15758703,24.2454642 L20.7786872,97.7650113 C21.732118,101.340558 24.9680999,103.695728 28.5061068,103.695728 C29.1964496,103.695728 29.8994207,103.605917 30.5981823,103.417842 L81.0047834,89.8563321 C85.2910125,88.7035774 87.8345469,84.3049358 86.6937975,80.0309736 L67.0737497,6.51142642 C66.1203189,2.93693585 62.8906511,0.580709434 59.3505395,0.580709434 M59.3515918,2.69391698 C62.0150943,2.69391698 64.3555248,4.48908679 65.0406059,7.05874717 L84.6617061,80.5782943 C85.0668615,82.0976906 84.8553388,83.6868226 84.0650226,85.0519547 C83.2726016,86.4213132 81.9918894,87.4028981 80.4596652,87.8149736 L30.053064,101.376483 C29.5458305,101.512785 29.0249163,101.582521 28.5061068,101.582521 C25.8383949,101.582521 23.496912,99.7873509 22.8107786,97.2176906 L3.1907308,23.6981434 C2.35305873,20.5568604 4.23782089,17.309917 7.39277172,16.4614642 L57.7983205,2.90101132 C58.3076588,2.76365283 58.8306777,2.69391698 59.3515918,2.69391698" id="Fill-3" fill="#4CA4CF" mask="url(#mask-2)"></path>
                    </g>
                    <polygon id="Fill-6" fill="#FFFFFF" points="76.8740919 74.3786717 26.4674908 87.9391245 8.74167632 21.5188981 59.1482774 7.95738868"></polygon>
                    <polygon id="Stroke-8" stroke="#4CA4CF" stroke-width="2" stroke-linejoin="round" points="76.8740919 74.3786717 26.4674908 87.9391245 8.74167632 21.5188981 59.1482774 7.95738868"></polygon>
                    <path d="M56.7391284,86.5387019 C57.2379431,88.4088906 56.1256072,90.3287396 54.2524209,90.8327396 C52.3792347,91.3367396 50.4597449,90.2315321 49.9609301,88.3624 C49.4621153,86.4922113 50.5733989,84.5723623 52.4476375,84.0683623 C54.3208238,83.5643623 56.2403136,84.6685132 56.7391284,86.5387019" id="Fill-10" fill="#FFFFFF"></path>
                    <path d="M56.7391284,86.5387019 C57.2379431,88.4088906 56.1256072,90.3287396 54.2524209,90.8327396 C52.3792347,91.3367396 50.4597449,90.2315321 49.9609301,88.3624 C49.4621153,86.4922113 50.5733989,84.5723623 52.4476375,84.0683623 C54.3208238,83.5643623 56.2403136,84.6685132 56.7391284,86.5387019 Z" id="Stroke-12" stroke="#4CA4CF" stroke-width="2"></path>
                    <g id="Group-17" transform="translate(1.052352, 60.226415)">
                        <path d="M1.077924,50.7169811 L2.73748286,46.5993962 C4.20656604,42.957283 4.45281637,38.9337358 3.44045389,35.1373585 L0.293921871,23.3477736 C-1.45613925,16.7915472 4.95057879,8.38943396 10.7006293,0.0538867925" id="Fill-14" fill="#FFFFFF"></path>
                        <path d="M1.077924,50.7169811 L2.73748286,46.5993962 C4.20656604,42.957283 4.45281637,38.9337358 3.44045389,35.1373585 L0.293921871,23.3477736 C-1.45613925,16.7915472 4.95057879,8.38943396 10.7006293,0.0538867925" id="Stroke-16" stroke="#4CA4CF" stroke-width="2" stroke-linecap="round" stroke-linejoin="round"></path>
                    </g>
                    <g id="Group-21" transform="translate(13.680574, 72.905660)">
                        <path d="M0.906916822,13.5696453 L6.66328142,3.62911698 C7.48411587,2.21115472 8.80586978,1.11123019 10.388607,0.706550943 C14.8947776,-0.446203774 15.6261621,5.11047547 14.6727313,6.75560755 L8.31021206,20.2040604 C7.70090035,21.493117 7.56830401,22.9565132 7.93557481,24.3343245 L8.39860962,26.0692679 C8.89111028,27.9162113 7.97135477,31.5583245 6.87375179,34.8633811" id="Fill-18" fill="#FFFFFF"></path>
                        <path d="M0.906916822,13.5696453 L6.66328142,3.62911698 C7.48411587,2.21115472 8.80586978,1.11123019 10.388607,0.706550943 C14.8947776,-0.446203774 15.6261621,5.11047547 14.6727313,6.75560755 L8.31021206,20.2040604 C7.70090035,21.493117 7.56830401,22.9565132 7.93557481,24.3343245 L8.39860962,26.0692679 C8.89111028,27.9162113 7.97135477,31.5583245 6.87375179,34.8633811" id="Stroke-20" stroke="#4CA4CF" stroke-width="2" stroke-linecap="round" stroke-linejoin="round"></path>
                    </g>
                </g>
                <g id="headset" transform="translate(133.239437, 12.444444)">
                    <path d="M71.8291055,68.176114 L79.8280319,38.2034348 C83.7627754,23.4595857 74.926177,8.15256688 60.1900941,4.18818952 L49.216169,1.23603857 C34.4800861,-2.72833878 19.205199,6.09113291 15.2704555,20.8360386 L7.2715291,50.8076612" id="Stroke-22" stroke="#4CA4CF" stroke-width="3" stroke-linecap="round"></path>
                    <path d="M71.957282,69.3395405 C77.5568461,70.8462574 83.6299686,66.3218801 85.5210449,59.234182 C87.4121212,52.1464839 84.4066043,45.1792386 78.8070401,43.6725216 L71.957282,69.3395405 Z" id="Fill-24" fill="#FFFFFF"></path>
                    <path d="M71.957282,69.3395405 C77.5568461,70.8462574 83.6299686,66.3218801 85.5210449,59.234182 C87.4121212,52.1464839 84.4066043,45.1792386 78.8070401,43.6725216 L71.957282,69.3395405 Z" id="Stroke-26" stroke="#4CA4CF" stroke-width="2" stroke-linejoin="round"></path>
                    <path d="M7.31372841,51.6156461 C1.71416423,50.1089291 -1.29135264,43.1427405 0.599723625,36.0550423 C2.49079989,28.9673442 8.5639224,24.4429669 14.1634866,25.9486273 L7.31372841,51.6156461 Z" id="Fill-28" fill="#FFFFFF"></path>
                    <path d="M7.31372841,51.6156461 C1.71416423,50.1089291 -1.29135264,43.1427405 0.599723625,36.0550423 C2.49079989,28.9673442 8.5639224,24.4429669 14.1634866,25.9486273 L7.31372841,51.6156461 Z" id="Stroke-30" stroke="#4CA4CF" stroke-width="2" stroke-linejoin="round"></path>
                    <path d="M71.6555727,68.9255631 C71.6555727,68.9255631 69.5677066,82.7015631 44.2596971,78.128582" id="Stroke-32" stroke="#4CA4CF" stroke-width="2"></path>
                    <path d="M33.5915854,71.318031 C30.8344236,71.318031 28.7107776,72.2288235 28.2856274,73.822182 C27.6752634,76.1086725 30.7933819,78.934031 35.2500919,80.1332763 C36.6013117,80.496748 37.9199086,80.6689744 39.1185373,80.6689744 C41.8756992,80.6689744 43.9993452,79.758182 44.4244953,78.1648235 C45.0348594,75.8783329 41.9167409,73.0529744 37.4600308,71.8537291 C36.1098634,71.4902574 34.7902142,71.318031 33.5915854,71.318031 M33.5915854,73.4312386 C34.6386755,73.4312386 35.7878437,73.5918423 36.9149126,73.8950876 C40.8107191,74.9432386 42.5313144,77.0955405 42.3924039,77.6175027 C42.3187393,77.8932763 41.2716492,78.5557669 39.1185373,78.5557669 C38.0714472,78.5557669 36.922279,78.3951631 35.7952102,78.0919178 C33.982008,77.6037669 32.3350773,76.7753895 31.2774637,75.8170499 C30.4671528,75.0827103 30.2798342,74.515314 30.3187712,74.3695027 C30.3924358,74.0937291 31.4384736,73.4312386 33.5915854,73.4312386" id="Fill-34" fill="#4CA4CF"></path>
                </g>
            </g>
        </g>
    </g>
</svg>