<?xml version="1.0" encoding="utf-8"?>
<!-- Generator: Adobe Illustrator 24.0.3, SVG Export Plug-In . SVG Version: 6.00 Build 0)  -->
<svg width="73px" height="64px" viewBox="0 0 73 64" version="1.1" id="Layer_1" xmlns="http://www.w3.org/2000/svg" xmlns:xlink="http://www.w3.org/1999/xlink" x="0px" y="0px"
	 style="enable-background:new 0 0 73 64;" xml:space="preserve">
<style type="text/css">
	.st0{fill-rule:evenodd;clip-rule:evenodd;fill:#0A84FF;}
	.st1{fill-rule:evenodd;clip-rule:evenodd;fill:#48484A;}
</style>
<title>Illustration/ProofEmail</title>
<desc>Created with Sketch.</desc>
<path id="Fill-1" class="st0" d="M36.5,26.7c-1.5,0-2.8-1.2-2.8-2.8s1.2-2.8,2.8-2.8s2.8,1.2,2.8,2.8S38,26.7,36.5,26.7 M36.5,13.4
	c-5.8,0-10.6,4.7-10.6,10.6c0,5.8,4.7,10.6,10.6,10.6c2.2,0,4.2-0.6,6-1.8c0.5-0.3,0.6-0.9,0.3-1.4c-0.3-0.5-0.9-0.6-1.4-0.3
	c-1.4,1-3.1,1.5-4.9,1.5c-4.7,0-8.6-3.9-8.6-8.6s3.9-8.6,8.6-8.6c4.7,0,8.6,3.9,8.6,8.6v0.8c0,1.1-0.9,1.9-1.9,1.9s-1.9-0.9-1.9-1.9
	V24c0-2.6-2.1-4.8-4.8-4.8s-4.8,2.1-4.8,4.8s2.1,4.8,4.8,4.8c1.4,0,2.7-0.6,3.5-1.6c0.7,1,1.8,1.6,3.1,1.6c2.2,0,3.9-1.8,3.9-3.9V24
	C47.1,18.2,42.3,13.4,36.5,13.4"/>
<path id="Fill-3" class="st1" d="M73,52V25.2c0-0.3-0.2-0.6-0.4-0.8L37.1,0.2c-0.3-0.2-0.8-0.2-1.1,0L0.4,24.4
	C0.2,24.6,0,24.9,0,25.2v33.3C0,61.5,2.5,64,5.6,64h61.7c3.1,0,5.6-2.5,5.6-5.5V52h-2v6.5c0,2-1.6,3.5-3.6,3.5H5.6
	c-2,0-3.6-1.6-3.6-3.5V27.4l16.4,11c0.2,0.1,0.4,0.2,0.6,0.2c0.3,0,0.6-0.2,0.8-0.4c0.3-0.5,0.2-1.1-0.3-1.4l-17-11.3L36.5,2.2
	l33.9,23.1l-17,11.3c-0.5,0.3-0.6,0.9-0.3,1.4c0.2,0.3,0.5,0.4,0.8,0.4c0.2,0,0.4-0.1,0.6-0.2l16.4-11V52H73z M48,41.2
	c-0.2-0.1-0.3-0.2-0.5-0.2H25.6c-0.2,0-0.4,0.1-0.5,0.2l-15.6,10c-0.5,0.3-0.6,0.9-0.3,1.4C9.3,52.8,9.7,53,10,53
	c0.2,0,0.4-0.1,0.5-0.2L25.9,43h21.2l15.3,9.8c0.5,0.3,1.1,0.2,1.4-0.3c0.3-0.5,0.2-1.1-0.3-1.4L48,41.2z"/>
</svg>
