<?xml version="1.0" encoding="utf-8"?>
<!-- Generator: Adobe Illustrator 24.0.3, SVG Export Plug-In . SVG Version: 6.00 Build 0)  -->
<svg width="54px" height="92px" version="1.1" id="Layer_1" xmlns="http://www.w3.org/2000/svg" xmlns:xlink="http://www.w3.org/1999/xlink" x="0px" y="0px"
	 viewBox="0 0 54 92" style="enable-background:new 0 0 54 92;" xml:space="preserve">
<style type="text/css">
	.st0{fill-rule:evenodd;clip-rule:evenodd;fill:#0A84FF;}
	.st1{filter:url(#Adobe_OpacityMaskFilter);}
	.st2{fill-rule:evenodd;clip-rule:evenodd;fill:#FFFFFF;}
	.st3{mask:url(#mask-2_1_);fill-rule:evenodd;clip-rule:evenodd;fill:#48484A;}
</style>
<title>Illustration/ProofOwnershipPhone</title>
<desc>Created with Sketch.</desc>
<path id="Fill-1" class="st0" d="M13,39c-1.7,0-3,1.3-3,3s1.3,3,3,3s3-1.3,3-3S14.7,39,13,39 M13,30c-1.7,0-3,1.3-3,3s1.3,3,3,3
	s3-1.3,3-3S14.7,30,13,30 M22,39c-1.7,0-3,1.3-3,3s1.3,3,3,3s3-1.3,3-3S23.7,39,22,39 M22,30c-1.7,0-3,1.3-3,3s1.3,3,3,3s3-1.3,3-3
	S23.7,30,22,30 M22,48c-1.7,0-3,1.3-3,3s1.3,3,3,3s3-1.3,3-3S23.7,48,22,48 M31,30c-1.7,0-3,1.3-3,3s1.3,3,3,3s3-1.3,3-3
	S32.7,30,31,30 M31,27c1.7,0,3-1.3,3-3s-1.3-3-3-3s-3,1.3-3,3S29.3,27,31,27 M22,21c-1.7,0-3,1.3-3,3s1.3,3,3,3s3-1.3,3-3
	S23.7,21,22,21 M13,21c-1.7,0-3,1.3-3,3s1.3,3,3,3s3-1.3,3-3S14.7,21,13,21"/>
<g id="Group-5">
	<g id="Clip-4">
	</g>
	<defs>
		<filter id="Adobe_OpacityMaskFilter" filterUnits="userSpaceOnUse" x="0" y="0" width="54" height="92">
			<feColorMatrix  type="matrix" values="1 0 0 0 0  0 1 0 0 0  0 0 1 0 0  0 0 0 1 0"/>
		</filter>
	</defs>
	<mask maskUnits="userSpaceOnUse" x="0" y="0" width="54" height="92" id="mask-2_1_">
		<g class="st1">
			<polygon id="path-1_1_" class="st2" points="0,0 54,0 54,92 0,92 			"/>
		</g>
	</mask>
	<path id="Fill-3" class="st3" d="M42,13.1H2V7.3C2,4.4,4.4,2,7.5,2h29.1c3,0,5.5,2.4,5.5,5.3V13.1z M52.8,60
		c-1.4-1.9-3-2.1-4.5-1.7v-0.9c0-2.1-2.1-3.1-4.2-3.1c0,0,0,0,0,0V7.3C44,3.3,40.7,0,36.5,0H7.5C3.3,0,0,3.3,0,7.3v60.3
		C0,71.7,3.3,75,7.5,75h11.1c0.6,0,1-0.4,1-1s-0.4-1-1-1H7.5c-3,0-5.5-2.4-5.5-5.3V62h10c0.6,0,1-0.4,1-1s-0.4-1-1-1H2V15.1h40v36.6
		c-0.6-1.1-2.1-1.8-3.9-1.8c-0.7,0-1.4,0.1-1.9,0.3v-9.4c0-2.5-2.2-3.8-4.3-3.8s-4.3,1.3-4.3,3.8v22.4c-1.7-2.4-3.6-4.5-5.9-6
		c-1.3-0.8-3-0.6-4.2,0.7c-1.1,1.1-1.9,3.2-0.8,4.9C22,70.2,24.8,76,28,86.5c0.5,1.7,0.5,4.5,0.5,4.5c0,0.6,0.4,1,1,1h0
		c0.5,0,1-0.4,1-1c0-0.1,0.1-3.1-0.6-5.1c-3.3-10.7-6.1-16.6-11.7-24.2c-0.5-0.8-0.1-1.8,0.5-2.4c0.2-0.2,1-0.9,1.7-0.4
		c2.9,1.8,4.9,4.7,7.2,8c0.2,0.4,0.7,0.5,1.1,0.4c0.4-0.1,0.7-0.5,0.7-1V40.8c0-1.4,1.5-1.8,2.3-1.8s2.3,0.4,2.3,1.8V59
		c0,0.6,0.4,1,1,1c0.6,0,1-0.4,1-1v-6.6c0.2-0.3,1.7-0.7,3.1-0.4c0.8,0.2,1.2,0.6,1.2,1.1v9.5c0,0.6,0.4,1,1,1c0.6,0,1-0.4,1-1v-5.7
		c0-0.3,0.8-0.6,1.6-0.6c1.1,0,2.2,0.4,2.2,1.1v8.5c0,0.6,0.4,1,1,1c0.6,0,1-0.4,1-1v-5.4c1.5-0.6,2.1-0.3,2.9,0.7
		c1.2,1.7,1.1,8.5-0.2,18.1c-0.3,1.9-1,3.2-1.6,4.3c-0.5,0.8-0.9,1.5-1.1,2.4c-0.4,1.9-0.5,4.9-0.5,5c0,0.6,0.4,1,1,1h0
		c0.5,0,1-0.4,1-1c0,0,0-2.9,0.4-4.6c0.1-0.6,0.5-1.2,0.9-1.9c0.7-1.2,1.6-2.7,1.9-5C54.4,68.8,54.4,62.3,52.8,60z M22,5
		c-1.1,0-2,0.9-2,2s0.9,2,2,2s2-0.9,2-2S23.1,5,22,5z"/>
</g>
</svg>
