<?xml version="1.0" encoding="utf-8"?>
<!-- Generator: Adobe Illustrator 24.0.3, SVG Export Plug-In . SVG Version: 6.00 Build 0)  -->
<svg width="82px" height="62px" version="1.1" id="Layer_1" xmlns="http://www.w3.org/2000/svg" xmlns:xlink="http://www.w3.org/1999/xlink" x="0px" y="0px"
	 viewBox="0 0 82 62" style="enable-background:new 0 0 82 62;" xml:space="preserve">
<style type="text/css">
	.st0{fill-rule:evenodd;clip-rule:evenodd;fill:#48484A;}
	.st1{fill-rule:evenodd;clip-rule:evenodd;fill:#0A84FF;}
</style>
<title>Illustration/Password</title>
<desc>Created with Sketch.</desc>
<path id="Fill-1" class="st0" d="M2,60h78v-3H2V60z M7.5,48h66.9l4.5,7H3.1L7.5,48z M8,3.3C8,2.6,8.6,2,9.4,2h63.3
	C73.4,2,74,2.6,74,3.3V46H8V3.3z M81.8,55.8L76,46.6V3.3C76,1.5,74.5,0,72.6,0H9.4C7.5,0,6,1.5,6,3.3v43.3l-5.9,9.2
	C0.1,56,0,56.2,0,56.4V61c0,0.6,0.4,1,1,1h80c0.6,0,1-0.4,1-1v-4.6C82,56.2,81.9,56,81.8,55.8z M50.3,50.6H31.7c-0.6,0-1,0.4-1,1
	c0,0.6,0.4,1,1,1h18.6c0.6,0,1-0.4,1-1C51.3,51,50.9,50.6,50.3,50.6z"/>
<polygon id="Fill-3" class="st0" points="58,28 69,28 69,26 58,26 "/>
<path id="Fill-4" class="st1" d="M18,22c1.7,0,3,1.3,3,3s-1.3,3-3,3s-3-1.3-3-3S16.3,22,18,22"/>
<path id="Fill-5" class="st1" d="M29,22c1.7,0,3,1.3,3,3s-1.3,3-3,3s-3-1.3-3-3S27.3,22,29,22"/>
<path id="Fill-6" class="st1" d="M40,22c1.7,0,3,1.3,3,3s-1.3,3-3,3s-3-1.3-3-3S38.3,22,40,22"/>
<path id="Fill-7" class="st1" d="M51,22c1.7,0,3,1.3,3,3s-1.3,3-3,3s-3-1.3-3-3S49.3,22,51,22"/>
</svg>
