<?xml version="1.0" encoding="utf-8"?>
<!-- Generator: Adobe Illustrator 24.0.3, SVG Export Plug-In . SVG Version: 6.00 Build 0)  -->
<svg width="64px" height="64px" version="1.1" id="Layer_1" xmlns="http://www.w3.org/2000/svg" xmlns:xlink="http://www.w3.org/1999/xlink" x="0px" y="0px"
	 viewBox="0 0 64 64" style="enable-background:new 0 0 64 64;" xml:space="preserve">
<style type="text/css">
	.st0{fill-rule:evenodd;clip-rule:evenodd;fill:#0A84FF;}
</style>
<title>Icons/ic_touch_id</title>
<desc>Created with Sketch.</desc>
<g id="Face-ID_1_">
	<g id="_x30_1-face-disabled" transform="translate(-155.000000, -104.000000)">
		<g id="Icons_x2F_Face-ID" transform="translate(155.000000, 104.000000)">
			<path id="Face-ID" class="st0" d="M64,53.6v-7.2c0-0.9-0.7-1.6-1.6-1.6s-1.6,0.7-1.6,1.6v7.2c0,3.9-3.2,7.1-7.1,7.1h-7.2
				c-0.9,0-1.6,0.7-1.6,1.6s0.7,1.6,1.6,1.6h7.2C59.3,64,64,59.3,64,53.6 M19.2,62.4c0-0.9-0.7-1.6-1.6-1.6h-7.2
				c-3.9,0-7.1-3.2-7.1-7.1v-7.2c0-0.9-0.7-1.6-1.6-1.6S0,45.5,0,46.4v7.2C0,59.3,4.7,64,10.4,64h7.2C18.5,64,19.2,63.3,19.2,62.4
				 M3.2,17.6v-7.2c0-3.9,3.2-7.1,7.1-7.1h7.2c0.9,0,1.6-0.7,1.6-1.6S18.5,0,17.6,0h-7.2C4.7,0,0,4.7,0,10.4v7.2
				c0,0.9,0.7,1.6,1.6,1.6S3.2,18.5,3.2,17.6 M64,17.6v-7.2C64,4.7,59.3,0,53.6,0h-7.2c-0.9,0-1.6,0.7-1.6,1.6s0.7,1.6,1.6,1.6h7.2
				c3.9,0,7.1,3.2,7.1,7.1v7.2c0,0.9,0.7,1.6,1.6,1.6S64,18.5,64,17.6 M43.2,47.3c0.7-0.6,0.7-1.7,0.1-2.4c-0.6-0.7-1.7-0.7-2.4-0.1
				c-2.4,2.3-5.6,3.5-8.9,3.5s-6.5-1.2-8.9-3.5c-0.7-0.6-1.8-0.6-2.4,0.1c-0.6,0.7-0.6,1.8,0.1,2.4c3.1,2.8,7,4.4,11.2,4.4
				S40.2,50.1,43.2,47.3 M35.4,36.1v-12c0-0.9-0.8-1.7-1.7-1.7S32,23.2,32,24.1v12c0,0.5-0.4,0.9-0.9,0.9h-1.4
				c-0.9,0-1.7,0.8-1.7,1.7s0.8,1.7,1.7,1.7h1.4C33.4,40.4,35.4,38.5,35.4,36.1 M47,28.8V24c0-0.9-0.7-1.6-1.6-1.6s-1.6,0.7-1.6,1.6
				v4.8c0,0.9,0.7,1.6,1.6,1.6S47,29.7,47,28.8 M19,30.4c-0.9,0-1.6-0.7-1.6-1.6V24c0-0.9,0.7-1.6,1.6-1.6s1.6,0.7,1.6,1.6v4.8
				C20.6,29.7,19.8,30.4,19,30.4"/>
		</g>
	</g>
</g>
</svg>
