<?xml version="1.0" encoding="utf-8"?>
<!-- Generator: Adobe Illustrator 24.0.3, SVG Export Plug-In . SVG Version: 6.00 Build 0)  -->
<svg width="64px" height="64px" version="1.1" id="Layer_1" xmlns="http://www.w3.org/2000/svg" xmlns:xlink="http://www.w3.org/1999/xlink" x="0px" y="0px"
	 viewBox="0 0 64 64" style="enable-background:new 0 0 64 64;" xml:space="preserve">
<style type="text/css">
	.st0{fill:#0A84FF;}
</style>
<title>Icons/ic_touch_id</title>
<desc>Created with Sketch.</desc>
<g id="Icons_x2F_ic_x5F_touch_x5F_id">
	<path class="st0" d="M34.3,62.9c-0.1,0-0.3,0-0.4-0.1c-0.6-0.2-0.9-0.9-0.6-1.5c1.7-4.3,2.9-8.8,3.4-13.3c0.1-0.6,0.6-1.1,1.2-1
		c0.6,0.1,1.1,0.6,1,1.2c-0.5,4.8-1.7,9.5-3.5,13.9C35.1,62.6,34.7,62.9,34.3,62.9z M28.9,62.9c-0.1,0-0.3,0-0.4-0.1
		c-0.6-0.2-0.9-0.9-0.6-1.5c0,0,0.9-2.3,1.3-3.4c0.2-0.6,0.8-0.9,1.4-0.7c0.6,0.2,0.9,0.8,0.7,1.4c-0.4,1.2-1.3,3.5-1.3,3.5
		C29.8,62.6,29.4,62.9,28.9,62.9z M39.9,62c-0.1,0-0.2,0-0.4-0.1c-0.6-0.2-0.9-0.8-0.7-1.4c2.1-6,3.1-12.2,3.1-18.6
		c0-3.8-0.4-7.6-1.1-11.3c0,0,0,0,0,0c0,0,0,0,0,0c-0.7-4.3-4.4-7.5-8.8-7.5c-1,0-2,0.2-3,0.5c-0.6,0.2-1.2-0.1-1.4-0.7
		c-0.2-0.6,0.1-1.2,0.7-1.4c1.2-0.4,2.5-0.6,3.7-0.6c5.5,0,10.1,3.9,11,9.3c0,0,0,0,0,0c0.8,3.8,1.2,7.8,1.2,11.8
		c0,6.6-1.1,13.1-3.3,19.3C40.8,61.7,40.3,62,39.9,62z M23.8,61.8c-0.2,0-0.3,0-0.5-0.1c-0.6-0.3-0.8-0.9-0.5-1.5
		c2.7-5.9,4.1-12.2,4.1-18.8c0-2.4-0.2-4.8-0.6-7.2c0,0,0-0.1,0-0.1c-0.2-1.2-0.2-2.1-0.2-2.1c0-3.3,2.7-5.9,5.9-5.9
		c2.8,0,5.3,2,5.8,4.8c0,0.1,0,0.1,0,0.2c0.8,3.7,1.2,7.6,1.2,11.4c0,0.6-0.5,1.1-1.1,1.1s-1.1-0.5-1.1-1.1c0-3.8-0.4-7.5-1.2-11.2
		c0-0.1,0-0.1,0-0.2c-0.4-1.6-1.9-2.8-3.6-2.8c-2,0-3.7,1.7-3.7,3.7c0,0,0,0.8,0.2,1.8c0,0.1,0,0.1,0,0.2c0.4,2.4,0.6,4.9,0.6,7.4
		c0,6.9-1.5,13.6-4.3,19.8C24.6,61.5,24.2,61.8,23.8,61.8z M19.1,60c-0.2,0-0.3,0-0.5-0.1c-0.6-0.3-0.8-1-0.5-1.5
		c2.5-5,3.9-10.6,3.9-16.1c0-1.9-0.2-3.8-0.5-5.7c0,0,0-0.1,0-0.1c-0.5-1.8-0.6-4.3-0.6-4.4c0-2.7,0.9-5.3,2.7-7.3
		c0.4-0.5,1.1-0.5,1.6-0.1c0.5,0.4,0.5,1.1,0.1,1.6c-1.4,1.6-2.1,3.7-2.1,5.8c0,0.7,0.2,2.9,0.6,4c0.1,0.2,0.1,0.3,0.1,0.5
		c0.3,1.9,0.5,3.8,0.5,5.8c0,5.9-1.4,11.9-4.1,17.1C19.9,59.8,19.5,60,19.1,60z M46.1,59.4c-0.1,0-0.2,0-0.3,0
		c-0.6-0.2-0.9-0.8-0.8-1.4c1.4-5.1,2.1-10.4,2.1-15.7c0-4.8-0.6-9.6-1.7-14.3c-0.2-0.6,0.2-1.2,0.8-1.4c0.6-0.1,1.2,0.2,1.4,0.8
		c1.2,4.8,1.8,9.8,1.8,14.8c0,5.5-0.7,11-2.2,16.3C47,59.1,46.6,59.4,46.1,59.4z M14.9,57.6c-0.2,0-0.3,0-0.5-0.1
		c-0.6-0.3-0.8-0.9-0.5-1.5c0.8-1.8,1.5-3.6,2-5.5c0.2-0.6,0.8-1,1.4-0.8c0.6,0.2,1,0.8,0.8,1.4c-0.5,2-1.2,4-2.1,5.9
		C15.7,57.3,15.3,57.6,14.9,57.6z M52.3,55.3c-0.1,0-0.1,0-0.2,0c-0.6-0.1-1-0.7-0.9-1.3c0.6-3.6,0.9-7.3,0.9-10.9
		c0-5.1-0.6-10.1-1.7-15c0,0,0-0.1,0-0.1c-1.1-5-4.3-9.4-8.7-12.1c-0.5-0.3-0.7-1-0.4-1.5c0.3-0.5,1-0.7,1.5-0.4
		c5,2.9,8.5,7.8,9.8,13.4c0,0,0,0.1,0,0.1c1.2,5.1,1.7,10.3,1.7,15.6c0,3.8-0.3,7.6-0.9,11.3C53.3,54.9,52.8,55.3,52.3,55.3z
		 M31.7,54.3c-0.1,0-0.2,0-0.3,0c-0.6-0.1-1-0.7-0.8-1.3c0.8-3.7,1.3-7.5,1.3-11.3c0-3.2-0.3-6.3-0.9-9.4c-0.1-0.6,0.3-1.2,0.9-1.3
		c0.6-0.1,1.2,0.3,1.3,0.9c0.6,3.2,0.9,6.5,0.9,9.8c0,4-0.4,7.9-1.3,11.8C32.7,54,32.2,54.3,31.7,54.3z M11,54.2
		c-0.1,0-0.3,0-0.4-0.1c-0.6-0.2-0.9-0.9-0.6-1.5c1.4-3.3,2-6.8,2-10.4c0-1.9-0.2-3.7-0.6-5.6c0,0,0-0.1,0-0.1
		c-0.5-3.1-0.5-4.3-0.5-4.6c0-11.6,9.5-21,21-21c1.9,0,3.7,0.2,5.5,0.7c0.6,0.2,1,0.8,0.8,1.4c-0.2,0.6-0.8,1-1.4,0.8
		c-1.6-0.4-3.2-0.6-4.9-0.6c-10.4,0-18.8,8.4-18.8,18.8l0,0.1c0,0-0.1,0.9,0.5,4.2c0.4,1.9,0.6,3.9,0.6,5.9c0,3.9-0.7,7.7-2.2,11.3
		C11.9,54,11.4,54.2,11,54.2z M7.4,50c-0.1,0-0.2,0-0.2,0c-0.6-0.1-1-0.7-0.9-1.3c0.4-2,0.7-4,0.7-6.1c0-1.7-0.2-3.5-0.5-5.2
		c0-0.1,0-0.1,0-0.2c-2.2-11.6,3.6-21.6,10.5-26.5c0.5-0.4,1.2-0.2,1.6,0.3c0.4,0.5,0.2,1.2-0.3,1.6C11.9,17,6.5,26.4,8.7,37.1
		c0,0.1,0,0.2,0,0.3c0.3,1.7,0.5,3.5,0.5,5.2c0,2.2-0.2,4.4-0.7,6.5C8.4,49.7,7.9,50,7.4,50z M58.1,47.6
		C58.1,47.6,58.1,47.6,58.1,47.6c-0.7,0-1.2-0.6-1.1-1.2c0-1.1,0.1-2.2,0.1-3.2c0-0.5,0-1,0-1.5c0-0.6,0.5-1.1,1.1-1.1
		c0.6,0,1.1,0.5,1.1,1.1c0,0.5,0,1,0,1.5c0,1.1,0,2.2-0.1,3.3C59.2,47.1,58.7,47.6,58.1,47.6z M17.9,46.3c0,0-0.1,0-0.1,0
		c-0.6-0.1-1.1-0.6-1-1.2c0.1-1,0.1-2,0.1-3.1c0-1.8-0.1-3.6-0.4-5.4c-0.5-1.7-0.6-4.5-0.6-4.6c0-9,7.2-16.2,16.2-16.2
		c4.9,0,9.5,2.2,12.6,6c0.4,0.5,0.3,1.2-0.2,1.6c-0.5,0.4-1.2,0.3-1.6-0.2c-2.7-3.3-6.6-5.2-10.8-5.2c-7.7,0-13.9,6.2-13.9,13.9l0,0
		c0,0,0.1,2.2,0.4,3.7c0,0.1,0.1,0.2,0.1,0.3c0.3,2,0.5,4,0.5,6c0,1.1-0.1,2.2-0.1,3.3C19,45.9,18.5,46.3,17.9,46.3z M3.7,43.1
		c-0.5,0-0.9-0.3-1.1-0.8C1.5,39,0.9,35.5,0.9,32c0-2.9,0.4-5.8,1.2-8.6c0.2-0.6,0.8-0.9,1.4-0.8c0.6,0.2,0.9,0.8,0.8,1.4
		c-0.7,2.6-1.1,5.3-1.1,8c0,3.3,0.5,6.5,1.6,9.6c0.2,0.6-0.1,1.2-0.7,1.4C3.9,43,3.8,43.1,3.7,43.1z M57.9,37.2
		c-0.6,0-1.1-0.4-1.1-1c-0.3-3-0.8-6.1-1.4-9.1c0,0,0,0,0,0c0,0,0,0,0,0C53,16.1,43.2,8.2,32,8.2c-3.1,0-6.1,0.6-9,1.8
		c-0.6,0.2-1.2,0-1.5-0.6s0-1.2,0.6-1.5c3.1-1.3,6.4-1.9,9.8-1.9c12.3,0,23,8.7,25.5,20.7c0,0,0,0,0,0c0.7,3.1,1.2,6.2,1.5,9.3
		c0.1,0.6-0.4,1.2-1,1.2C58,37.2,57.9,37.2,57.9,37.2z M62,33.1c-0.6,0-1.1-0.5-1.1-1.1c0-14.1-10-26-23.8-28.4
		c-0.6-0.1-1-0.7-0.9-1.3c0.1-0.6,0.7-1,1.3-0.9C52.3,4,63.1,16.9,63.1,32C63.1,32.6,62.6,33.1,62,33.1z M5.1,19.8
		c-0.2,0-0.3,0-0.5-0.1c-0.6-0.3-0.8-1-0.5-1.5C9.3,7.7,19.9,1,31.6,0.9c0,0,0,0,0,0c0.6,0,1.1,0.5,1.1,1.1c0,0.6-0.5,1.1-1.1,1.1
		C20.7,3.3,11,9.4,6.1,19.2C5.9,19.6,5.5,19.8,5.1,19.8z"/>
</g>
</svg>
