<?xml version="1.0" encoding="utf-8"?>
<!-- Generator: Adobe Illustrator 24.0.3, SVG Export Plug-In . SVG Version: 6.00 Build 0)  -->
<svg width="76px" height="69px" version="1.1" id="Layer_1" xmlns="http://www.w3.org/2000/svg" xmlns:xlink="http://www.w3.org/1999/xlink" x="0px" y="0px"
	 viewBox="0 0 76 69" style="enable-background:new 0 0 76 69;" xml:space="preserve">
<style type="text/css">
	.st0{filter:url(#Adobe_OpacityMaskFilter);}
	.st1{fill-rule:evenodd;clip-rule:evenodd;fill:#FFFFFF;}
	.st2{mask:url(#mask-2_1_);fill-rule:evenodd;clip-rule:evenodd;fill:#48484A;}
	.st3{fill-rule:evenodd;clip-rule:evenodd;fill:#0A84FF;}
</style>
<title>illustration/Stop</title>
<desc>Created with Sketch.</desc>
<g id="Group-3" transform="translate(0.000000, 0.000500)">
	<g id="Clip-2">
	</g>
	<defs>
		<filter id="Adobe_OpacityMaskFilter" filterUnits="userSpaceOnUse" x="0" y="0" width="76" height="69">
			<feColorMatrix  type="matrix" values="1 0 0 0 0  0 1 0 0 0  0 0 1 0 0  0 0 0 1 0"/>
		</filter>
	</defs>
	<mask maskUnits="userSpaceOnUse" x="0" y="0" width="76" height="69" id="mask-2_1_">
		<g class="st0">
			<polygon id="path-1_1_" class="st1" points="0,0 76,0 76,69 0,69 			"/>
		</g>
	</mask>
	<path id="Fill-1" class="st2" d="M38,2c-1.9,0-3.7,1-4.7,2.8l-30.6,54c-1,1.8-1,3.8,0,5.6C3.8,66,5.5,67,7.4,67h61.2
		c1.9,0,3.7-1,4.6-2.7c1-1.7,1-3.8,0-5.6l-30.6-54C41.7,3,40,2,38,2z M68.6,69H7.4c-2.6,0-5-1.4-6.4-3.7c-1.4-2.4-1.4-5.2,0-7.6
		l30.6-54C32.9,1.4,35.3,0,38,0h0c2.7,0,5.1,1.4,6.4,3.8l30.6,54c1.4,2.4,1.3,5.2,0,7.6C73.6,67.6,71.2,69,68.6,69z"/>
</g>
<path id="Fill-4" class="st3" d="M38,49c-1.7,0-3,1.3-3,3c0,1.7,1.3,3,3,3c1.7,0,3-1.3,3-3C41,50.3,39.7,49,38,49 M38,43
	c0.6,0,1-0.4,1-1V23c0-0.6-0.4-1-1-1c-0.6,0-1,0.4-1,1v19C37,42.6,37.5,43,38,43"/>
</svg>
