<?xml version="1.0" encoding="utf-8"?>
<!-- Generator: Adobe Illustrator 24.0.3, SVG Export Plug-In . SVG Version: 6.00 Build 0)  -->
<svg version="1.1" width="16px" height="16px" id="Layer_1" xmlns="http://www.w3.org/2000/svg" xmlns:xlink="http://www.w3.org/1999/xlink" x="0px" y="0px"
	 viewBox="0 0 16 16" style="enable-background:new 0 0 16 16;" xml:space="preserve">
<style type="text/css">
	.st0{fill-rule:evenodd;clip-rule:evenodd;fill:#757575;}
</style>
<title>Element/Both/TickGrey</title>
<desc>Created with Sketch.</desc>
<g id="Mask">
	<path id="path-1_1_" class="st0" d="M8.1,0.4C7,0.4,6,0.6,5,1S3.3,2,2.6,2.7S1.3,4.2,0.9,5.2s-0.6,1.9-0.6,3s0.2,2.1,0.6,3
		s1,1.8,1.7,2.5s1.5,1.3,2.5,1.7s2,0.6,3,0.6s2.1-0.2,3-0.6s1.8-1,2.5-1.7s1.3-1.5,1.7-2.5s0.6-2,0.6-3c0-1.1-0.2-2.1-0.6-3
		s-1-1.8-1.7-2.5C12.9,2,12,1.4,11.1,1S9.1,0.4,8.1,0.4z M12.1,5.3l-4.3,6.5c0,0.1-0.1,0.2-0.2,0.2c-0.1,0.1-0.2,0.1-0.3,0.1l0,0
		c-0.1,0-0.2,0-0.3,0c-0.1,0-0.2-0.1-0.2-0.1L4.2,9.5C4,9.3,4,9.2,4,9s0-0.4,0.2-0.5c0.1-0.2,0.3-0.2,0.5-0.2S5,8.4,5.1,8.5l2,1.9
		l3.8-5.8c0.1-0.2,0.3-0.3,0.4-0.3s0.4,0,0.5,0.1c0.2,0.1,0.3,0.3,0.3,0.4S12.2,5.1,12.1,5.3z"/>
</g>
</svg>
