<?xml version="1.0" encoding="UTF-8"?>
<svg width="54px" height="92px" viewBox="0 0 54 92" version="1.1" xmlns="http://www.w3.org/2000/svg" xmlns:xlink="http://www.w3.org/1999/xlink">
    <!-- Generator: Sketch 52.3 (67297) - http://www.bohemiancoding.com/sketch -->
    <title>Illustration/ProofOwnershipPhone</title>
    <desc>Created with Sketch.</desc>
    <defs>
        <polygon id="path-1" points="0 0.0001 53.9996785 0.0001 53.9996785 92 0 92"></polygon>
    </defs>
    <g id="Illustration/ProofOwnershipPhone" stroke="none" stroke-width="1" fill="none" fill-rule="evenodd">
        <g id="Group-6">
            <path d="M13,39 C11.346,39 10,40.346 10,42 C10,43.654 11.346,45 13,45 C14.654,45 16,43.654 16,42 C16,40.346 14.654,39 13,39 M13,30 C11.346,30 10,31.346 10,33 C10,34.654 11.346,36 13,36 C14.654,36 16,34.654 16,33 C16,31.346 14.654,30 13,30 M22,39 C20.346,39 19,40.346 19,42 C19,43.654 20.346,45 22,45 C23.654,45 25,43.654 25,42 C25,40.346 23.654,39 22,39 M22,30 C20.346,30 19,31.346 19,33 C19,34.654 20.346,36 22,36 C23.654,36 25,34.654 25,33 C25,31.346 23.654,30 22,30 M22,48 C20.346,48 19,49.346 19,51 C19,52.654 20.346,54 22,54 C23.654,54 25,52.654 25,51 C25,49.346 23.654,48 22,48 M31,30 C29.346,30 28,31.346 28,33 C28,34.654 29.346,36 31,36 C32.654,36 34,34.654 34,33 C34,31.346 32.654,30 31,30 M31,27 C32.654,27 34,25.654 34,24 C34,22.346 32.654,21 31,21 C29.346,21 28,22.346 28,24 C28,25.654 29.346,27 31,27 M22,21 C20.346,21 19,22.346 19,24 C19,25.654 20.346,27 22,27 C23.654,27 25,25.654 25,24 C25,22.346 23.654,21 22,21 M13,21 C11.346,21 10,22.346 10,24 C10,25.654 11.346,27 13,27 C14.654,27 16,25.654 16,24 C16,22.346 14.654,21 13,21" id="Fill-1" fill="#007DBA"></path>
            <g id="Group-5">
                <mask id="mask-2" fill="white">
                    <use xlink:href="#path-1"></use>
                </mask>
                <g id="Clip-4"></g>
                <path d="M42,13.0571 L2,13.0571 L2,7.3481 C2,4.3991 4.45,2.0001 7.461,2.0001 L36.538,2.0001 C39.55,2.0001 42,4.3991 42,7.3481 L42,13.0571 Z M52.769,60.0361 C51.393,58.0871 49.808,57.9251 48.223,58.3521 L48.223,57.4181 C48.223,55.3601 46.105,54.2831 44.014,54.2831 C44.009,54.2831 44.005,54.2841 44,54.2841 L44,7.3481 C44,3.2961 40.652,0.0001 36.538,0.0001 L7.461,0.0001 C3.347,0.0001 0,3.2961 0,7.3481 L0,67.6521 C0,71.7041 3.347,75.0001 7.461,75.0001 L18.529,75.0001 C19.082,75.0001 19.529,74.5531 19.529,74.0001 C19.529,73.4471 19.082,73.0001 18.529,73.0001 L7.461,73.0001 C4.45,73.0001 2,70.6001 2,67.6521 L2,61.9851 L12,61.9851 C12.552,61.9851 13,61.5381 13,60.9851 C13,60.4321 12.552,59.9851 12,59.9851 L2,59.9851 L2,15.0571 L42,15.0571 L42,51.6561 C41.352,50.5451 39.936,49.8571 38.065,49.8571 C37.341,49.8571 36.685,49.9561 36.124,50.1371 L36.124,40.7811 C36.124,38.2981 33.946,36.9991 31.795,36.9991 C29.644,36.9991 27.466,38.2981 27.466,40.7811 L27.466,63.1711 C25.726,60.7971 23.897,58.6651 21.525,57.1691 C20.215,56.3441 18.566,56.6151 17.322,57.8601 C16.178,59.0061 15.44,61.0201 16.562,62.7911 C22.002,70.2471 24.778,76.0011 27.986,86.4701 C28.519,88.2081 28.464,90.9491 28.463,90.9771 C28.451,91.5291 28.888,91.9871 29.44,92.0001 L29.463,92.0001 C30.005,92.0001 30.45,91.5671 30.463,91.0231 C30.466,90.8981 30.526,87.9331 29.898,85.8841 C26.616,75.1721 23.768,69.2741 18.214,61.6671 C17.74,60.9151 18.118,59.8941 18.737,59.2741 C18.954,59.0581 19.715,58.3921 20.458,58.8601 C23.32,60.6661 25.324,63.5491 27.645,66.8871 C27.894,67.2461 28.349,67.4021 28.765,67.2701 C29.182,67.1401 29.466,66.7541 29.466,66.3161 L29.466,40.7811 C29.466,39.3751 30.93,38.9991 31.795,38.9991 C32.66,38.9991 34.124,39.3751 34.124,40.7811 L34.124,59.0111 C34.124,59.5631 34.571,60.0111 35.124,60.0111 C35.677,60.0111 36.124,59.5631 36.124,59.0111 L36.124,52.3721 C36.354,52.0641 37.83,51.6291 39.207,51.9981 C39.996,52.2101 40.396,52.5831 40.396,53.1061 L40.396,62.5611 C40.396,63.1141 40.843,63.5611 41.396,63.5611 C41.948,63.5611 42.396,63.1141 42.396,62.5611 L42.396,56.9081 C42.396,56.5751 43.151,56.2831 44.014,56.2831 C45.076,56.2831 46.223,56.7171 46.223,57.4181 L46.223,65.8741 C46.223,66.4271 46.67,66.8741 47.223,66.8741 C47.775,66.8741 48.223,66.4271 48.223,65.8741 L48.223,60.4501 C49.709,59.8961 50.365,60.1001 51.135,61.1901 C52.346,62.9041 52.276,69.6581 50.95,79.2561 C50.683,81.1891 49.956,82.4381 49.315,83.5391 C48.854,84.3341 48.417,85.0841 48.221,85.9581 C47.792,87.8751 47.743,90.8591 47.741,90.9851 C47.733,91.5371 48.174,91.9911 48.727,92.0001 L48.741,92.0001 C49.287,92.0001 49.733,91.5611 49.741,91.0151 C49.741,90.9861 49.789,88.1091 50.172,86.3951 C50.301,85.8221 50.645,85.2301 51.044,84.5451 C51.741,83.3471 52.609,81.8541 52.931,79.5291 C54.408,68.8401 54.354,62.2811 52.769,60.0361 Z M22,5.0001 C20.897,5.0001 20,5.8971 20,7.0001 C20,8.1031 20.897,9.0001 22,9.0001 C23.103,9.0001 24,8.1031 24,7.0001 C24,5.8971 23.103,5.0001 22,5.0001 Z" id="Fill-3" fill="#7A99AC" mask="url(#mask-2)"></path>
            </g>
        </g>
    </g>
</svg>