<?xml version="1.0" encoding="UTF-8"?>
<svg width="73px" height="64px" viewBox="0 0 73 64" version="1.1" xmlns="http://www.w3.org/2000/svg" xmlns:xlink="http://www.w3.org/1999/xlink">
    <!-- Generator: Sketch 52.3 (67297) - http://www.bohemiancoding.com/sketch -->
    <title>Illustration/ProofEmail</title>
    <desc>Created with Sketch.</desc>
    <g id="Proof-Email-OTP" stroke="none" stroke-width="1" fill="none" fill-rule="evenodd">
        <g id="Prove-email" transform="translate(-504.000000, -213.000000)">
            <g id="Illustration/ProofEmail" transform="translate(504.000000, 213.000000)">
                <g id="Group-5">
                    <path d="M36.5,26.7498 C34.983,26.7498 33.75,25.5168 33.75,23.9998 C33.75,22.4828 34.983,21.2498 36.5,21.2498 C38.017,21.2498 39.25,22.4828 39.25,23.9998 C39.25,25.5168 38.017,26.7498 36.5,26.7498 M36.5,13.4168 C30.664,13.4168 25.917,18.1638 25.917,23.9998 C25.917,29.8348 30.664,34.5828 36.5,34.5828 C38.658,34.5828 40.728,33.9458 42.482,32.7408 C42.938,32.4278 43.054,31.8058 42.741,31.3508 C42.429,30.8948 41.807,30.7788 41.351,31.0918 C39.93,32.0668 38.253,32.5828 36.5,32.5828 C31.768,32.5828 27.917,28.7328 27.917,23.9998 C27.917,19.2668 31.768,15.4168 36.5,15.4168 C41.233,15.4168 45.083,19.2668 45.083,23.9998 L45.083,24.8328 C45.083,25.8898 44.224,26.7498 43.167,26.7498 C42.11,26.7498 41.25,25.8898 41.25,24.8328 L41.25,23.9998 C41.25,21.3808 39.119,19.2498 36.5,19.2498 C33.881,19.2498 31.75,21.3808 31.75,23.9998 C31.75,26.6188 33.881,28.7498 36.5,28.7498 C37.906,28.7498 39.157,28.1248 40.027,27.1508 C40.741,28.1158 41.877,28.7498 43.167,28.7498 C45.326,28.7498 47.083,26.9928 47.083,24.8328 L47.083,23.9998 C47.083,18.1638 42.336,13.4168 36.5,13.4168" id="Fill-1" fill="#007DBA"></path>
                    <path d="M73,51.9998 L73,25.1948 C73,24.8638 72.837,24.5548 72.563,24.3688 L37.063,0.1738 C36.723,-0.0582 36.277,-0.0582 35.937,0.1738 L0.437,24.3688 C0.164,24.5548 0,24.8638 0,25.1948 L0,58.4628 C0,61.5158 2.526,63.9998 5.63,63.9998 L67.369,63.9998 C70.474,63.9998 73,61.5158 73,58.4628 L73,51.9998 L71,51.9998 L71,58.4628 C71,60.4128 69.371,61.9998 67.369,61.9998 L5.63,61.9998 C3.628,61.9998 2,60.4128 2,58.4628 L2,27.3688 L18.445,38.3318 C18.616,38.4448 18.809,38.4998 18.999,38.4998 C19.322,38.4998 19.639,38.3438 19.832,38.0548 C20.138,37.5948 20.014,36.9748 19.555,36.6678 L2.563,25.3398 L36.5,2.2098 L70.438,25.3408 L53.448,36.6678 C52.988,36.9748 52.864,37.5948 53.171,38.0548 C53.363,38.3438 53.681,38.4998 54.004,38.4998 C54.194,38.4998 54.387,38.4448 54.558,38.3318 L71,27.3708 L71,51.9998 L73,51.9998 Z M47.952,41.1578 C47.791,41.0548 47.604,40.9998 47.412,40.9998 L25.588,40.9998 C25.397,40.9998 25.209,41.0548 25.048,41.1578 L9.46,51.1578 C8.995,51.4558 8.86,52.0748 9.158,52.5398 C9.349,52.8378 9.672,52.9998 10.001,52.9998 C10.186,52.9998 10.373,52.9488 10.54,52.8418 L25.881,42.9998 L47.119,42.9998 L62.46,52.8418 C62.924,53.1398 63.543,53.0048 63.842,52.5398 C64.14,52.0748 64.005,51.4558 63.54,51.1578 L47.952,41.1578 Z" id="Fill-3" fill="#7A99AC"></path>
                </g>
            </g>
        </g>
    </g>
</svg>