<?xml version="1.0" encoding="UTF-8"?>
<svg width="82px" height="62px" viewBox="0 0 82 62" version="1.1" xmlns="http://www.w3.org/2000/svg" xmlns:xlink="http://www.w3.org/1999/xlink">
    <!-- Generator: Sketch 52.3 (67297) - http://www.bohemiancoding.com/sketch -->
    <title>Illustration/Password</title>
    <desc>Created with Sketch.</desc>
    <g id="Illustration/Password" stroke="none" stroke-width="1" fill="none" fill-rule="evenodd">
        <g id="Group-8">
            <path d="M2,60 L80,60 L80,56.996 L2,56.996 L2,60 Z M7.547,48 L74.452,48 L78.926,54.996 L3.075,54.996 L7.547,48 Z M8.037,3.308 C8.037,2.586 8.626,2 9.352,2 L72.648,2 C73.373,2 73.963,2.586 73.963,3.308 L73.963,46 L8.037,46 L8.037,3.308 Z M81.843,55.846 L75.963,46.648 L75.963,3.308 C75.963,1.484 74.476,0 72.648,0 L9.352,0 C7.524,0 6.037,1.484 6.037,3.308 L6.037,46.65 L0.158,55.846 C0.055,56.007 0,56.194 0,56.385 L0,61 C0,61.553 0.448,62 1,62 L81,62 C81.553,62 82,61.553 82,61 L82,56.385 C82,56.194 81.945,56.007 81.843,55.846 Z M50.303,50.575 L31.698,50.575 C31.146,50.575 30.698,51.022 30.698,51.575 C30.698,52.128 31.146,52.575 31.698,52.575 L50.303,52.575 C50.855,52.575 51.303,52.128 51.303,51.575 C51.303,51.022 50.855,50.575 50.303,50.575 Z" id="Fill-1" fill="#7A99AC"></path>
            <polygon id="Fill-3" fill="#7A99AC" points="58 28 69 28 69 26 58 26"></polygon>
            <path d="M18,22 C19.657,22 21,23.343 21,25 C21,26.657 19.657,28 18,28 C16.343,28 15,26.657 15,25 C15,23.343 16.343,22 18,22" id="Fill-4" fill="#007DBA"></path>
            <path d="M29,22 C30.657,22 32,23.343 32,25 C32,26.657 30.657,28 29,28 C27.343,28 26,26.657 26,25 C26,23.343 27.343,22 29,22" id="Fill-5" fill="#007DBA"></path>
            <path d="M40,22 C41.657,22 43,23.343 43,25 C43,26.657 41.657,28 40,28 C38.343,28 37,26.657 37,25 C37,23.343 38.343,22 40,22" id="Fill-6" fill="#007DBA"></path>
            <path d="M51,22 C52.657,22 54,23.343 54,25 C54,26.657 52.657,28 51,28 C49.343,28 48,26.657 48,25 C48,23.343 49.343,22 51,22" id="Fill-7" fill="#007DBA"></path>
        </g>
    </g>
</svg>