<?xml version="1.0" encoding="UTF-8"?>
<svg width="64px" height="64px" viewBox="0 0 64 64" version="1.1" xmlns="http://www.w3.org/2000/svg" xmlns:xlink="http://www.w3.org/1999/xlink">
    <!-- Generator: Sketch 51.2 (57519) - http://www.bohemiancoding.com/sketch -->
    <title>Icons/ic_touch_id</title>
    <desc>Created with Sketch.</desc>
    <defs></defs>
    <g id="Face-ID" stroke="none" stroke-width="1" fill="none" fill-rule="evenodd">
        <g id="01-face-disabled" transform="translate(-155.000000, -104.000000)" fill="#007DBA">
            <g id="Icons/Face-ID" transform="translate(155.000000, 104.000000)">
                <path d="M64,53.625 L64,46.4375 C64,45.5400625 63.2724375,44.8125 62.375,44.8125 C61.4775625,44.8125 60.75,45.5400625 60.75,46.4375 L60.75,53.625 C60.75,57.5536875 57.5536875,60.75 53.625,60.75 L46.4375,60.75 C45.5400625,60.75 44.8125,61.4775625 44.8125,62.375 C44.8125,63.2724375 45.5400625,64 46.4375,64 L53.625,64 C59.34575,64 64,59.34575 64,53.625 M19.1875,62.375 C19.1875,61.4775625 18.4599375,60.75 17.5625,60.75 L10.375,60.75 C6.4463125,60.75 3.25,57.5536875 3.25,53.625 L3.25,46.4375 C3.25,45.5400625 2.5224375,44.8125 1.625,44.8125 C0.7275625,44.8125 0,45.5400625 0,46.4375 L0,53.625 C0,59.34575 4.65425,64 10.375,64 L17.5625,64 C18.4599375,64 19.1875,63.2724375 19.1875,62.375 M3.25,17.5625 L3.25,10.375 C3.25,6.44625 6.4463125,3.25 10.375,3.25 L17.5625,3.25 C18.4599375,3.25 19.1875,2.5224375 19.1875,1.625 C19.1875,0.7275625 18.4599375,0 17.5625,0 L10.375,0 C4.65425,0 0,4.6541875 0,10.375 L0,17.5625 C0,18.4599375 0.7275625,19.1875 1.625,19.1875 C2.5224375,19.1875 3.25,18.4599375 3.25,17.5625 M64,17.5625 L64,10.375 C64,4.6541875 59.34575,0 53.625,0 L46.4375,0 C45.5400625,0 44.8125,0.7275625 44.8125,1.625 C44.8125,2.5224375 45.5400625,3.25 46.4375,3.25 L53.625,3.25 C57.5536875,3.25 60.75,6.44625 60.75,10.375 L60.75,17.5625 C60.75,18.4599375 61.4775625,19.1875 62.375,19.1875 C63.2724375,19.1875 64,18.4599375 64,17.5625 M43.2143125,47.30225 C43.8989375,46.669875 43.94125,45.60225 43.308875,44.917625 C42.6764375,44.233 41.608875,44.1906875 40.92425,44.823 C38.4881875,47.07325 35.3188125,48.3125 32,48.3125 C28.6811875,48.3125 25.5118125,47.07325 23.07575,44.823 C22.391,44.1906875 21.3235625,44.2330625 20.691125,44.917625 C20.05875,45.60225 20.1010625,46.669875 20.7856875,47.30225 C23.84725,50.130125 27.8298125,51.6875 32,51.6875 C36.1701875,51.6875 40.15275,50.130125 43.2143125,47.30225 M35.375,36.125 L35.375,24.125 C35.375,23.193 34.6195,22.4375 33.6875,22.4375 C32.7555,22.4375 32,23.193 32,24.125 L32,36.125 C32,36.6419375 31.5794375,37.0625 31.0625,37.0625 L29.6875,37.0625 C28.7555,37.0625 28,37.818 28,38.75 C28,39.682 28.7555,40.4375 29.6875,40.4375 L31.0625,40.4375 C33.4404375,40.4375 35.375,38.5029375 35.375,36.125 M47,28.84375 L47,24.03125 C47,23.1510625 46.2864375,22.4375 45.40625,22.4375 C44.5260625,22.4375 43.8125,23.1510625 43.8125,24.03125 L43.8125,28.84375 C43.8125,29.7239375 44.5260625,30.4375 45.40625,30.4375 C46.2864375,30.4375 47,29.7239375 47,28.84375 M18.96875,30.4375 C18.0885625,30.4375 17.375,29.7239375 17.375,28.84375 L17.375,24.03125 C17.375,23.1510625 18.0885625,22.4375 18.96875,22.4375 C19.8489375,22.4375 20.5625,23.1510625 20.5625,24.03125 L20.5625,28.84375 C20.5625,29.7239375 19.8489375,30.4375 18.96875,30.4375" id="Face-ID"></path>
            </g>
        </g>
    </g>
</svg>