<?xml version="1.0" encoding="UTF-8"?>
<svg width="64px" height="64px" viewBox="0 0 64 64" version="1.1" xmlns="http://www.w3.org/2000/svg" xmlns:xlink="http://www.w3.org/1999/xlink">
    <!-- Generator: Sketch 49 (51002) - http://www.bohemiancoding.com/sketch -->
    <title>Icons/ic_touch_id</title>
    <desc>Created with Sketch.</desc>
    <defs></defs>
    <g id="Icons/ic_touch_id" stroke="none" stroke-width="1" fill="none" fill-rule="evenodd" stroke-linecap="round">
        <path d="M62,32 C62,17.2137045 51.3027217,4.92589215 37.2250312,2.45342917 M31.6015527,2.00259189 C19.9890265,2.15374913 9.96791821,8.90282492 5.11545487,18.6725923 M3.15482723,23.728353 C2.40276063,26.3558624 2,29.1308963 2,32 C2,35.4802053 2.59260355,38.8220005 3.68240775,41.929983 M56.4232749,26.8650117 C54.0558183,15.5477239 44.0205408,7.04780115 32,7.04780115 C28.6730426,7.04780115 25.4981627,7.69892174 22.5958396,8.88068332 M17.5854074,11.6301031 C11.2092114,16.1503697 5.2122372,25.7410018 7.62141491,37.334608 M7.38581563,48.9134922 C7.84043327,46.8857234 8.08030593,44.7768017 8.08030593,42.6118547 C8.08030593,40.7669936 7.90611979,38.9628158 7.57329649,37.2148703 M51.4377998,27.6958371 C50.2386892,22.256125 46.8143477,17.6514725 42.1680123,14.8851164 M37.2080982,12.7838947 C35.5480507,12.3350614 33.8019897,12.0956023 32,12.0956023 C21.0071047,12.0956023 12.0956023,21.0071047 12.0956023,32 C12.0956023,32 11.9808795,32.8604207 12.5544933,36.5315488 M43.7428427,22.6061279 C40.9875921,19.2037745 36.7764869,17.0286807 32.0573614,17.0286807 C23.7572502,17.0286807 17.0286807,23.7572502 17.0286807,32.0573614 C17.0286807,32.0573614 17.1434034,34.8107075 17.6022945,36.416826 M41.9040031,30.3543432 C41.1188169,25.5932689 36.9835007,21.9617591 32,21.9617591 C30.8172943,21.9617591 29.6823607,22.1662959 28.6286421,22.5419267 M24.350518,25.4995583 C22.8607294,27.2509717 21.9617591,29.520503 21.9617591,32 C21.9617591,32 22.0764818,34.8107077 22.6500956,36.4168262 M36.7786431,30.9755779 C36.330894,28.7779378 34.3872436,27.124283 32.0573614,27.124283 C29.396257,27.124283 27.2390057,29.2815343 27.2390057,31.9426386 C27.2390057,31.9426386 27.2390057,32.8604207 27.4684512,34.0076482 M58.1431851,46.4682649 C58.1903319,45.3798873 58.2141491,44.2854593 58.2141491,43.1854685 C58.2141491,42.6813702 58.2091471,42.1784402 58.1991901,41.6767254 M57.880452,36.0845484 C57.584909,32.9559388 57.0960696,29.8835996 56.4260046,26.8796016 M52.2782227,54.1572136 C52.8626022,50.5480761 53.166348,46.8448827 53.166348,43.0707457 C53.166348,37.7893056 52.571536,32.6467912 51.4452473,27.7065378 M46.064643,58.2628536 C47.4779429,53.1724496 48.2332696,47.808276 48.2332696,42.2676864 C48.2332696,37.2544433 47.6148825,32.3856323 46.4502257,27.7333706 M39.8624419,60.8857371 C41.9407551,54.9500329 43.0707457,48.5687372 43.0707457,41.9235182 C43.0707457,37.9750371 42.6717977,34.1197354 41.9120117,30.3957231 M34.2563489,61.7763646 C35.9962999,57.4869098 37.1763189,52.9105246 37.7057234,48.137891 M38.0229446,42.3824092 C38.0229446,38.4570459 37.5848444,34.6340064 36.754872,30.9595187 M28.9338336,61.7518868 C28.9338336,61.7518868 29.8588003,59.444457 30.2595368,58.2609851 M31.6891872,53.1958489 C32.5307487,49.4972026 32.9751434,45.6475346 32.9751434,41.6940727 C32.9751434,38.3999127 32.6666094,35.1778148 32.0768625,32.0551 M23.8018715,60.6421137 C26.5231563,54.7771592 28.042065,48.2409119 28.042065,41.3499044 C28.042065,38.8425754 27.8409758,36.3822134 27.4540449,33.9840659 M19.0936903,58.9024849 C21.6175908,53.9694065 23.1089866,48.196561 23.1089866,42.2676864 C23.1089866,40.2609582 22.9372424,38.294343 22.6076508,36.3817376 M17.9164821,45.2154712 C18.0122464,44.169234 18.0611855,43.1094526 18.0611855,42.0382409 C18.0611855,40.0661987 17.8953271,38.1328949 17.5767989,36.2515178 M14.9098494,56.4451449 C15.7500683,54.6247506 16.4359809,52.7185044 16.9508149,50.7431787 M11.0037199,53.1202532 C12.3732168,49.7725674 13.1281071,46.1082839 13.1281071,42.2676864 C13.1281071,40.2882053 12.9275726,38.3555614 12.545711,36.4889621" id="Touch-ID" stroke="#007DBA" stroke-width="2.25"></path>
    </g>
</svg>