<?xml version="1.0" encoding="UTF-8"?>
<svg width="16px" height="16px" viewBox="0 0 16 16" version="1.1" xmlns="http://www.w3.org/2000/svg" xmlns:xlink="http://www.w3.org/1999/xlink">
    <!-- Generator: Sketch 52.4 (67378) - http://www.bohemiancoding.com/sketch -->
    <title>Element/Both/TickGrey</title>
    <desc>Created with Sketch.</desc>
    <defs>
        <path d="M8.06835938,0.41796875 C7.00194779,0.41796875 5.99540094,0.619278121 5.04868862,1.0219029 C4.10197629,1.42452768 3.27497563,1.97948865 2.56766183,2.68680246 C1.86034803,3.39411626 1.30538706,4.21567612 0.902762277,5.1515067 C0.500137496,6.08733727 0.298828125,7.09932492 0.298828125,8.1875 C0.298828125,9.25391158 0.500137496,10.2604584 0.902762277,11.2071708 C1.30538706,12.1538831 1.86034803,12.9754429 2.56766183,13.671875 C3.27497563,14.3683071 4.10197629,14.923268 5.04868862,15.3367746 C5.99540094,15.7502811 7.00194779,15.9570312 8.06835938,15.9570312 C9.13477096,15.9570312 10.1413178,15.7502811 11.0880301,15.3367746 C12.0347425,14.923268 12.8617431,14.3683071 13.5690569,13.671875 C14.2763707,12.9754429 14.8313317,12.1538831 15.2339565,11.2071708 C15.6365813,10.2604584 15.8378906,9.25391158 15.8378906,8.1875 C15.8378906,7.09932492 15.6365813,6.08733727 15.2339565,5.1515067 C14.8313317,4.21567612 14.2763707,3.39411626 13.5690569,2.68680246 C12.8617431,1.97948865 12.0347425,1.42452768 11.0880301,1.0219029 C10.1413178,0.619278121 9.13477096,0.41796875 8.06835938,0.41796875 Z M12.0837054,5.28208705 L7.80719866,11.8111049 C7.76367166,11.8981589 7.69838213,11.9688892 7.61132812,12.023298 C7.52427412,12.0777067 7.42633983,12.1049107 7.31752232,12.1049107 L7.25223214,12.1049107 C7.16517814,12.1049107 7.07812544,12.0885883 6.99107143,12.0559431 C6.90401742,12.0232978 6.8387279,11.9852123 6.79520089,11.9416853 L4.18359375,9.46065848 C4.03124924,9.33007747 3.95507812,9.17229445 3.95507812,8.98730469 C3.95507812,8.80231492 4.02036765,8.6445319 4.15094866,8.51395089 C4.28152967,8.36160638 4.43931269,8.28543527 4.62430246,8.28543527 C4.80929222,8.28543527 4.96707524,8.35072479 5.09765625,8.4813058 L7.12165179,10.374721 L10.9411272,4.56389509 C11.0499447,4.38978708 11.1968462,4.28641199 11.3818359,4.25376674 C11.5668257,4.22112149 11.7354903,4.24832546 11.8878348,4.33537946 C12.0401793,4.44419697 12.1381136,4.59109841 12.1816406,4.77608817 C12.2251676,4.96107793 12.1925229,5.12974254 12.0837054,5.28208705 Z" id="path-1"></path>
    </defs>
    <g id="Element/Both/TickGrey" stroke="none" stroke-width="1" fill="none" fill-rule="evenodd">
        <g id="Tick-2">
            <mask id="mask-2" fill="white">
                <use xlink:href="#path-1"></use>
            </mask>
            <use id="Mask" fill="#1D8846" xlink:href="#path-1"></use>
            <g id="Basics/Fill/Stone40" mask="url(#mask-2)" fill="#B0B7BC">
                <rect id="Rectangle-2-Copy" x="0" y="0" width="16" height="16"></rect>
            </g>
        </g>
    </g>
</svg>